<?xml version="1.0" standalone="no"?>
<!DOCTYPE svg PUBLIC "-//W3C//DTD SVG 20010904//EN"
 "http://www.w3.org/TR/2001/REC-SVG-20010904/DTD/svg10.dtd">
<svg version="1.0" xmlns="http://www.w3.org/2000/svg"
 width="800.000000pt" height="800.000000pt" viewBox="0 0 800.000000 800.000000"
 preserveAspectRatio="xMidYMid meet">
<metadata>
Created by potrace 1.14, written by Peter Selinger 2001-2017
</metadata>
<g transform="translate(0.000000,800.000000) scale(0.100000,-0.100000)"
fill="#000000" stroke="none">
<path d="M1734 6914 c-168 -162 -552 -534 -652 -631 -58 -57 -106 -103 -106
-103 -1 0 -56 -53 -122 -117 -67 -65 -226 -220 -355 -345 -129 -124 -294 -284
-367 -355 l-132 -128 0 -1251 0 -1250 223 -216 c255 -248 351 -341 641 -621
114 -111 243 -236 286 -277 335 -325 564 -547 611 -592 l56 -53 1425 1 c783 0
1429 3 1434 6 5 4 9 353 9 860 l0 853 -820 1 c-451 1 -849 4 -885 7 -161 15
-310 58 -454 131 -91 46 -226 134 -226 147 0 5 -5 9 -12 9 -23 0 -203 195
-260 282 -32 48 -58 92 -58 97 0 6 -4 11 -10 11 -5 0 -9 3 -8 8 1 4 -10 32
-25 64 -29 62 -83 216 -91 262 -5 29 -14 84 -22 141 -9 68 -3 247 11 325 3 19
8 47 11 62 11 70 81 262 114 318 5 8 23 40 41 70 84 145 249 318 391 413 124
82 309 164 408 182 8 1 22 5 30 8 19 8 67 15 150 24 36 3 436 6 890 6 l825 1
-1 850 c-1 468 -2 857 -3 864 -1 9 -295 12 -1435 12 l-1434 0 -78 -76z"/>
</g>
</svg>
